<mxfile host="app.diagrams.net" modified="2024-03-09T03:30:09.321Z" agent="Mozilla/5.0 (Windows NT 10.0; Win64; x64) AppleWebKit/537.36 (KHTML, like Gecko) Chrome/122.0.0.0 Safari/537.36" etag="Ag3YQl_0kNE3andfw_ba" version="24.0.3" type="github">
  <diagram name="Page-1" id="7e0a89b8-554c-2b80-1dc8-d5c74ca68de4">
    <mxGraphModel dx="969" dy="606" grid="0" gridSize="10" guides="1" tooltips="1" connect="1" arrows="0" fold="1" page="1" pageScale="1" pageWidth="4681" pageHeight="3300" background="#FFFFFF" math="0" shadow="0">
      <root>
        <mxCell id="0" />
        <mxCell id="1" parent="0" />
        <mxCell id="epJvlrGfhzXwcjCoHWxg-8" style="edgeStyle=orthogonalEdgeStyle;rounded=0;sketch=1;hachureGap=4;jiggle=2;curveFitting=1;orthogonalLoop=1;jettySize=auto;html=1;exitX=1;exitY=0.5;exitDx=0;exitDy=0;exitPerimeter=0;endArrow=none;endFill=0;" parent="1" source="epJvlrGfhzXwcjCoHWxg-1" target="epJvlrGfhzXwcjCoHWxg-2" edge="1">
          <mxGeometry relative="1" as="geometry" />
        </mxCell>
        <mxCell id="epJvlrGfhzXwcjCoHWxg-1" value="&lt;font face=&quot;Comic Sans MS&quot;&gt;voltage source&lt;/font&gt;" style="verticalLabelPosition=top;shadow=0;dashed=0;align=center;fillColor=strokeColor;html=1;verticalAlign=bottom;strokeWidth=1;shape=mxgraph.electrical.miscellaneous.monocell_battery;sketch=1;hachureGap=4;jiggle=2;curveFitting=1;labelPosition=center;" parent="1" vertex="1">
          <mxGeometry x="100" y="280" width="100" height="60" as="geometry" />
        </mxCell>
        <mxCell id="epJvlrGfhzXwcjCoHWxg-2" value="&lt;font face=&quot;Comic Sans MS&quot;&gt;resistor&lt;/font&gt;" style="pointerEvents=1;verticalLabelPosition=middle;shadow=0;dashed=0;align=left;html=1;verticalAlign=middle;shape=mxgraph.electrical.resistors.resistor_1;sketch=1;hachureGap=4;jiggle=2;curveFitting=1;direction=south;labelPosition=right;" parent="1" vertex="1">
          <mxGeometry x="263" y="370" width="15" height="40" as="geometry" />
        </mxCell>
        <mxCell id="epJvlrGfhzXwcjCoHWxg-29" style="edgeStyle=orthogonalEdgeStyle;rounded=0;sketch=1;hachureGap=4;jiggle=2;curveFitting=1;orthogonalLoop=1;jettySize=auto;html=1;exitX=1;exitY=0.77;exitDx=0;exitDy=0;exitPerimeter=0;" parent="1" edge="1">
          <mxGeometry relative="1" as="geometry">
            <mxPoint x="120" y="476.6" as="targetPoint" />
            <mxPoint x="132.0000000000001" y="450.0000000000001" as="sourcePoint" />
            <Array as="points">
              <mxPoint x="130" y="449.6" />
              <mxPoint x="130" y="476.6" />
            </Array>
          </mxGeometry>
        </mxCell>
        <mxCell id="epJvlrGfhzXwcjCoHWxg-12" value="&lt;font color=&quot;#ffb366&quot; face=&quot;Comic Sans MS&quot;&gt;capacitor&lt;/font&gt;" style="pointerEvents=1;verticalLabelPosition=bottom;shadow=0;dashed=0;align=center;html=1;verticalAlign=top;shape=mxgraph.electrical.capacitors.multiple_electrolytic_capacitor_comm_pos;sketch=1;hachureGap=4;jiggle=2;curveFitting=1;direction=west;points=[[0,0.5,0,0,0],[1,0.23,0,0,0],[1,0.77,0,0,0]];fillColor=#ffe6cc;strokeColor=#d79b00;" parent="1" vertex="1">
          <mxGeometry x="132" y="435" width="68" height="80" as="geometry" />
        </mxCell>
        <mxCell id="epJvlrGfhzXwcjCoHWxg-14" style="edgeStyle=orthogonalEdgeStyle;rounded=0;sketch=1;hachureGap=4;jiggle=2;curveFitting=1;orthogonalLoop=1;jettySize=auto;html=1;exitX=1;exitY=0.5;exitDx=0;exitDy=0;exitPerimeter=0;entryX=0;entryY=0.5;entryDx=0;entryDy=0;entryPerimeter=0;flowAnimation=0;endArrow=none;endFill=0;" parent="1" source="epJvlrGfhzXwcjCoHWxg-2" target="epJvlrGfhzXwcjCoHWxg-12" edge="1">
          <mxGeometry relative="1" as="geometry" />
        </mxCell>
        <mxCell id="epJvlrGfhzXwcjCoHWxg-28" style="edgeStyle=orthogonalEdgeStyle;rounded=0;sketch=1;hachureGap=4;jiggle=2;curveFitting=1;orthogonalLoop=1;jettySize=auto;html=1;exitX=1;exitY=0.23;exitDx=0;exitDy=0;exitPerimeter=0;entryX=0;entryY=0.5;entryDx=0;entryDy=0;entryPerimeter=0;endArrow=none;endFill=0;" parent="1" source="epJvlrGfhzXwcjCoHWxg-12" target="epJvlrGfhzXwcjCoHWxg-1" edge="1">
          <mxGeometry relative="1" as="geometry">
            <Array as="points">
              <mxPoint x="130" y="497" />
              <mxPoint x="130" y="475" />
              <mxPoint x="40" y="475" />
              <mxPoint x="40" y="310" />
            </Array>
          </mxGeometry>
        </mxCell>
        <mxCell id="epJvlrGfhzXwcjCoHWxg-33" style="edgeStyle=orthogonalEdgeStyle;rounded=0;sketch=1;hachureGap=4;jiggle=2;curveFitting=1;orthogonalLoop=1;jettySize=auto;html=1;exitX=0;exitY=0.5;exitDx=0;exitDy=0;exitPerimeter=0;entryX=0;entryY=0.5;entryDx=0;entryDy=0;entryPerimeter=0;endArrow=none;endFill=0;" parent="1" target="epJvlrGfhzXwcjCoHWxg-31" edge="1">
          <mxGeometry relative="1" as="geometry">
            <mxPoint x="270" y="474.8571428571429" as="sourcePoint" />
          </mxGeometry>
        </mxCell>
        <mxCell id="epJvlrGfhzXwcjCoHWxg-31" value="&lt;font face=&quot;Comic Sans MS&quot;&gt;capacitor&lt;/font&gt;" style="pointerEvents=1;verticalLabelPosition=bottom;shadow=0;dashed=0;align=center;html=1;verticalAlign=top;shape=mxgraph.electrical.capacitors.capacitor_1;sketch=1;hachureGap=4;jiggle=2;curveFitting=1;labelPosition=center;gradientColor=default;" parent="1" vertex="1">
          <mxGeometry x="278" y="460" width="59" height="30" as="geometry" />
        </mxCell>
        <mxCell id="epJvlrGfhzXwcjCoHWxg-43" value="" style="pointerEvents=1;verticalLabelPosition=bottom;shadow=0;dashed=0;align=center;html=1;verticalAlign=top;shape=mxgraph.electrical.inductors.inductor_1;sketch=1;hachureGap=4;jiggle=2;curveFitting=1;" parent="1" vertex="1">
          <mxGeometry x="520" y="310" width="110" height="25" as="geometry" />
        </mxCell>
        <mxCell id="epJvlrGfhzXwcjCoHWxg-46" style="edgeStyle=orthogonalEdgeStyle;rounded=0;hachureGap=4;orthogonalLoop=1;jettySize=auto;html=1;exitX=0;exitY=0.645;exitDx=0;exitDy=0;exitPerimeter=0;flowAnimation=0;shadow=0;textShadow=0;sketch=1;curveFitting=1;jiggle=2;endArrow=oval;endFill=0;jumpStyle=none;" parent="1" source="epJvlrGfhzXwcjCoHWxg-42" edge="1">
          <mxGeometry relative="1" as="geometry">
            <mxPoint x="720" y="480" as="targetPoint" />
            <Array as="points">
              <mxPoint x="465" y="317" />
              <mxPoint x="465" y="480" />
            </Array>
          </mxGeometry>
        </mxCell>
        <mxCell id="epJvlrGfhzXwcjCoHWxg-51" style="edgeStyle=orthogonalEdgeStyle;rounded=0;hachureGap=4;orthogonalLoop=1;jettySize=auto;html=1;exitX=1;exitY=0.645;exitDx=0;exitDy=0;exitPerimeter=0;flowAnimation=0;sketch=1;curveFitting=1;jiggle=2;endArrow=oval;endFill=0;" parent="1" source="epJvlrGfhzXwcjCoHWxg-42" edge="1">
          <mxGeometry relative="1" as="geometry">
            <mxPoint x="720" y="450" as="targetPoint" />
            <Array as="points">
              <mxPoint x="700" y="317" />
              <mxPoint x="700" y="450" />
            </Array>
          </mxGeometry>
        </mxCell>
        <mxCell id="epJvlrGfhzXwcjCoHWxg-42" value="&lt;font color=&quot;#ffb366&quot; face=&quot;Comic Sans MS&quot;&gt;inductor&lt;/font&gt;" style="pointerEvents=1;verticalLabelPosition=top;shadow=0;dashed=0;align=center;html=1;verticalAlign=bottom;shape=mxgraph.electrical.inductors.inductor_5;sketch=1;hachureGap=4;jiggle=2;curveFitting=1;flipH=0;flipV=0;fillColor=#ffe6cc;strokeColor=#d79b00;labelPosition=center;" parent="1" vertex="1">
          <mxGeometry x="500" y="285" width="150" height="50" as="geometry" />
        </mxCell>
        <mxCell id="epJvlrGfhzXwcjCoHWxg-44" value="N" style="text;html=1;align=center;verticalAlign=middle;resizable=0;points=[];autosize=1;strokeColor=none;fillColor=none;" parent="1" vertex="1">
          <mxGeometry x="520" y="305" width="30" height="30" as="geometry" />
        </mxCell>
        <mxCell id="epJvlrGfhzXwcjCoHWxg-45" value="S" style="text;html=1;align=center;verticalAlign=middle;resizable=0;points=[];autosize=1;strokeColor=none;fillColor=none;" parent="1" vertex="1">
          <mxGeometry x="600" y="305" width="30" height="30" as="geometry" />
        </mxCell>
        <mxCell id="epJvlrGfhzXwcjCoHWxg-57" value="&lt;span style=&quot;color: rgb(0, 0, 0); font-family: &amp;quot;Comic Sans MS&amp;quot;; font-size: 12px; font-style: normal; font-variant-ligatures: normal; font-variant-caps: normal; font-weight: 400; letter-spacing: normal; orphans: 2; text-align: left; text-indent: 0px; text-transform: none; widows: 2; word-spacing: 0px; -webkit-text-stroke-width: 0px; white-space: nowrap; background-color: rgb(251, 251, 251); text-decoration-thickness: initial; text-decoration-style: initial; text-decoration-color: initial; display: inline !important; float: none;&quot;&gt;Vout&lt;/span&gt;" style="text;whiteSpace=wrap;html=1;" parent="1" vertex="1">
          <mxGeometry x="720" y="450" width="60" height="40" as="geometry" />
        </mxCell>
        <mxCell id="epJvlrGfhzXwcjCoHWxg-58" style="edgeStyle=orthogonalEdgeStyle;rounded=0;sketch=1;hachureGap=4;jiggle=2;curveFitting=1;orthogonalLoop=1;jettySize=auto;html=1;exitX=1;exitY=0.5;exitDx=0;exitDy=0;exitPerimeter=0;entryX=1.22;entryY=0.497;entryDx=0;entryDy=0;entryPerimeter=0;endArrow=oval;endFill=0;" parent="1" source="epJvlrGfhzXwcjCoHWxg-31" target="epJvlrGfhzXwcjCoHWxg-31" edge="1">
          <mxGeometry relative="1" as="geometry" />
        </mxCell>
        <mxCell id="epJvlrGfhzXwcjCoHWxg-59" value="&lt;span style=&quot;color: rgb(0, 0, 0); font-family: &amp;quot;Comic Sans MS&amp;quot;; font-size: 12px; font-style: normal; font-variant-ligatures: normal; font-variant-caps: normal; font-weight: 400; letter-spacing: normal; orphans: 2; text-align: left; text-indent: 0px; text-transform: none; widows: 2; word-spacing: 0px; -webkit-text-stroke-width: 0px; white-space: nowrap; background-color: rgb(251, 251, 251); text-decoration-thickness: initial; text-decoration-style: initial; text-decoration-color: initial; display: inline !important; float: none;&quot;&gt;Vout&lt;/span&gt;" style="text;whiteSpace=wrap;html=1;" parent="1" vertex="1">
          <mxGeometry x="337" y="440" width="60" height="40" as="geometry" />
        </mxCell>
      </root>
    </mxGraphModel>
  </diagram>
</mxfile>
